<svg xmlns="http://www.w3.org/2000/svg" viewBox="0 0 640 360" role="img" aria-label="Under construction">
  <defs>
    <linearGradient id="g1" x1="0" x2="0" y1="0" y2="1">
      <stop offset="0%" stop-color="#ffedd5"/>
      <stop offset="100%" stop-color="#fde68a"/>
    </linearGradient>
  </defs>
  <rect width="640" height="360" fill="url(#g1)"/>
  <g fill="#0ea5e9" opacity="0.15">
    <circle cx="560" cy="60" r="40"/>
    <circle cx="580" cy="80" r="20"/>
  </g>
  <g>
    <rect x="40" y="260" width="560" height="16" rx="8" fill="#fecaca"/>
    <rect x="60" y="140" width="520" height="120" rx="16" fill="#fef3c7" stroke="#f59e0b" stroke-width="4"/>
    <g transform="translate(80,160)">
      <rect width="60" height="60" rx="10" fill="#fcd34d" stroke="#d97706" stroke-width="3"/>
      <path d="M10 40 L30 20 L50 40" fill="none" stroke="#b45309" stroke-width="6" stroke-linecap="round"/>
    </g>
    <g transform="translate(170,160)">
      <rect width="60" height="60" rx="10" fill="#93c5fd" stroke="#2563eb" stroke-width="3"/>
      <circle cx="30" cy="30" r="12" fill="#1d4ed8"/>
    </g>
    <g transform="translate(260,160)">
      <rect width="60" height="60" rx="10" fill="#86efac" stroke="#16a34a" stroke-width="3"/>
      <rect x="18" y="18" width="24" height="24" fill="#15803d" rx="4"/>
    </g>
    <g transform="translate(350,160)">
      <rect width="60" height="60" rx="10" fill="#fca5a5" stroke="#ef4444" stroke-width="3"/>
      <path d="M18 18 L42 42 M42 18 L18 42" stroke="#b91c1c" stroke-width="5" stroke-linecap="round"/>
    </g>
    <g transform="translate(440,160)">
      <rect width="60" height="60" rx="10" fill="#fde68a" stroke="#f59e0b" stroke-width="3"/>
      <path d="M15 40 L30 20 L45 40 Z" fill="#f59e0b"/>
    </g>
  </g>
  <g text-anchor="middle" font-family="ui-sans-serif, system-ui, -apple-system, Segoe UI, Roboto, Ubuntu, Cantarell, Noto Sans, Helvetica Neue, Arial" fill="#374151">
    <text x="320" y="120" font-size="28" font-weight="700">Photo coming soon</text>
    <text x="320" y="148" font-size="16" fill="#6b7280">This barraca is under construction</text>
  </g>
</svg>
